<?xml version="1.0" encoding="UTF-8"?>
<!DOCTYPE svg PUBLIC "-//W3C//DTD SVG 1.1//EN" "http://www.w3.org/Graphics/SVG/1.1/DTD/svg11.dtd">
<!-- Creator: CorelDRAW X8 -->
<svg xmlns="http://www.w3.org/2000/svg" xml:space="preserve" width="39.7168mm" height="10.5912mm" version="1.1" style="shape-rendering:geometricPrecision; text-rendering:geometricPrecision; image-rendering:optimizeQuality; fill-rule:evenodd; clip-rule:evenodd"
viewBox="0 0 845 225"
 xmlns:xlink="http://www.w3.org/1999/xlink">
 <defs>
  <style type="text/css">
   <![CDATA[
    .fil0 {fill:#FEFEFE}
   ]]>
  </style>
 </defs>
 <g id="Camada_x0020_1">
  <metadata id="CorelCorpID_0Corel-Layer"/>
  <g id="_1889801490736">
   <path class="fil0" d="M285 78c-10,0 -17,3 -22,9l0 -8 -20 0 0 95 21 0 0 -32c5,5 12,8 21,8 19,0 35,-14 35,-36 0,-22 -16,-36 -35,-36zm-4 55c-10,0 -18,-7 -18,-19 0,-12 8,-20 18,-20 10,0 18,8 18,20 0,12 -8,19 -18,19zm76 17c21,0 33,-9 33,-22 0,-28 -43,-16 -43,-28 0,-4 4,-7 13,-7 7,0 14,1 21,5l6 -14c-6,-4 -17,-6 -27,-6 -20,0 -32,9 -32,22 0,28 42,17 42,28 0,4 -3,7 -13,7 -8,0 -18,-3 -24,-7l-7 14c7,5 19,8 31,8zm89 -19c-2,2 -5,3 -8,3 -6,0 -9,-3 -9,-9l0 -29 17 0 0 -16 -17 0 0 -17 -21 0 0 17 -10 0 0 16 10 0 0 29c0,17 10,25 27,25 6,0 12,-1 16,-4l-5 -15zm58 -53c-9,0 -17,3 -22,8l0 -34 -21 0 0 97 21 0 0 -35c0,-13 7,-19 16,-19 9,0 15,6 15,17l0 37 20 0 0 -40c0,-22 -13,-31 -29,-31zm80 72c22,0 39,-15 39,-36 0,-21 -17,-36 -39,-36 -22,0 -39,15 -39,36 0,21 17,36 39,36zm0 -17c-10,0 -18,-7 -18,-19 0,-12 8,-20 18,-20 10,0 18,8 18,20 0,12 -8,19 -18,19zm143 -55c-10,0 -20,4 -25,11 -5,-8 -14,-11 -23,-11 -9,0 -17,3 -22,9l0 -8 -20 0 0 70 20 0 0 -35c0,-13 7,-19 16,-19 8,0 13,6 13,17l0 37 21 0 0 -35c0,-13 6,-19 15,-19 8,0 13,6 13,17l0 37 21 0 0 -40c0,-22 -12,-31 -29,-31zm108 -27l-22 0 -17 19 16 0 23 -19zm10 63c0,-22 -16,-36 -37,-36 -21,0 -37,15 -37,36 0,21 15,36 40,36 12,0 22,-4 29,-11l-11 -12c-5,4 -10,7 -18,7 -10,0 -18,-6 -20,-14l53 0c0,-2 1,-4 1,-6zm-37 -21c9,0 16,6 17,15l-34 0c1,-9 8,-15 17,-15z"/>
   <path class="fil0" d="M285 78c-10,0 -17,3 -22,9l0 -8 -20 0 0 97 21 0 0 -34c5,5 12,8 21,8 19,0 35,-14 35,-36 0,-22 -16,-36 -35,-36zm-4 55c-10,0 -18,-7 -18,-19 0,-12 8,-20 18,-20 10,0 18,8 18,20 0,12 -8,19 -18,19zm76 17c21,0 33,-9 33,-22 0,-28 -43,-16 -43,-28 0,-4 4,-7 13,-7 7,0 14,1 21,5l6 -14c-6,-4 -17,-6 -27,-6 -20,0 -32,9 -32,22 0,28 42,17 42,28 0,4 -3,7 -13,7 -8,0 -18,-3 -24,-7l-7 14c7,5 19,8 31,8zm89 -19c-2,2 -5,3 -8,3 -6,0 -9,-3 -9,-9l0 -29 17 0 0 -16 -17 0 0 -28 -21 0 0 28 -10 0 0 16 10 0 0 29c0,17 10,25 27,25 6,0 12,-1 16,-4l-5 -15zm58 -53c-9,0 -17,3 -22,8l0 -34 -21 0 0 97 21 0 0 -35c0,-13 7,-19 16,-19 9,0 15,6 15,17l0 37 20 0 0 -40c0,-22 -13,-31 -29,-31zm80 72c22,0 39,-15 39,-36 0,-21 -17,-36 -39,-36 -22,0 -39,15 -39,36 0,21 17,36 39,36zm0 -17c-10,0 -18,-7 -18,-19 0,-12 8,-20 18,-20 10,0 18,8 18,20 0,12 -8,19 -18,19zm143 -55c-10,0 -20,4 -25,11 -5,-8 -14,-11 -23,-11 -9,0 -17,3 -22,9l0 -8 -20 0 0 70 20 0 0 -35c0,-13 7,-19 16,-19 8,0 13,6 13,17l0 37 21 0 0 -35c0,-13 6,-19 15,-19 8,0 13,6 13,17l0 37 21 0 0 -40c0,-22 -12,-31 -29,-31zm108 -27l-22 0 -17 19 16 0 23 -19zm10 63c0,-22 -16,-36 -37,-36 -21,0 -37,15 -37,36 0,21 15,36 40,36 12,0 22,-4 29,-11l-11 -12c-5,4 -10,7 -18,7 -10,0 -18,-6 -20,-14l53 0c0,-2 1,-4 1,-6zm-37 -21c9,0 16,6 17,15l-34 0c1,-9 8,-15 17,-15z"/>
   <path class="fil0" d="M0 51c14,-5 31,-11 51,-18 24,-9 55,-20 93,-33 0,8 0,16 0,24 -38,11 -69,19 -93,26 -20,5 -37,10 -51,14 0,-4 0,-9 0,-13zm0 18c16,-4 34,-8 57,-14 28,-7 64,-16 111,-27 0,4 0,8 0,13 -47,10 -83,17 -111,23 -23,5 -41,8 -57,12 0,-2 0,-5 0,-7zm0 12c14,-3 31,-6 51,-9 24,-5 55,-10 93,-17 0,8 0,16 0,24 -38,4 -69,7 -93,10 -20,2 -37,4 -51,5 0,-4 0,-9 0,-13zm0 50c14,2 31,3 51,5 24,3 55,6 93,10 0,8 0,16 0,24 -38,-6 -69,-12 -93,-16 -20,-4 -37,-7 -51,-10 0,-4 0,-8 0,-13zm0 19c16,3 34,7 57,11 28,6 64,14 111,24 0,4 0,8 0,13 -47,-12 -83,-21 -111,-28 -23,-5 -41,-10 -57,-14 0,-2 0,-4 0,-6zm0 11c14,4 31,9 51,14 24,7 55,15 93,26 0,8 0,16 0,24 -38,-13 -69,-24 -93,-32 -20,-7 -37,-13 -51,-18 0,-5 0,-9 0,-14zm0 -62c16,-1 34,-2 57,-4 28,-2 64,-5 111,-8 0,17 0,34 0,52 -47,-4 -83,-7 -111,-9 -23,-1 -41,-3 -57,-4 0,-9 0,-18 0,-27z"/>
   <path class="fil0" d="M429 179c-2,-3 -5,-4 -8,-4 -9,0 -13,6 -13,13 0,6 4,11 13,11 4,0 6,-1 9,-4l0 -10 -10 0 0 4 6 0 0 4c-2,2 -4,2 -5,2 -6,0 -8,-4 -8,-7 0,-5 3,-9 8,-9 2,0 4,1 5,2l3 -2zm32 19l-7 -7c4,-1 6,-5 6,-8 0,-4 -3,-7 -9,-7 -3,0 -7,0 -11,0l0 23 5 0 0 -8 4 0 7 8 5 0 0 -1zm-10 -18c3,0 4,2 4,3 0,2 -1,4 -4,4l-6 0 0 -7 6 0zm37 19l5 0 -10 -23 -5 0 -10 23 4 0 2 -5 12 0 2 5zm-4 -9l-8 0 4 -9 4 9zm22 -10l7 0c5,0 5,8 0,8l-7 0 0 -8zm7 -4c-4,0 -7,0 -11,0l0 23 4 0 0 -7 7 0c11,0 11,-16 0,-16zm38 23l0 -23 -4 0 0 9 -11 0 0 -9 -4 0 0 23 4 0 0 -10 11 0 0 10 4 0zm16 0l0 -23 -4 0 0 23 4 0zm29 -6c-1,1 -4,2 -6,2 -5,0 -8,-4 -8,-8 0,-3 3,-8 8,-8 2,0 4,1 6,3l3 -3c-3,-2 -6,-4 -9,-4 -8,0 -12,6 -12,12 0,6 4,12 12,12 4,0 7,-1 9,-3l-3 -3zm43 -17c-3,0 -6,0 -9,0l0 23c3,0 6,0 9,0 8,0 12,-6 11,-12 0,-6 -3,-11 -11,-11zm-5 4l5 0c5,0 7,3 7,7 0,4 -2,7 -7,7l-5 0 0 -14zm44 14l-13 0 0 -5 12 0 0 -4 -12 0 0 -5 13 0 0 -4 -17 0c0,7 0,15 0,23l17 0 0 -5zm29 -14c-2,-4 -6,-5 -9,-5 -4,0 -9,2 -9,7 0,5 4,6 9,7 3,0 5,1 5,3 0,2 -2,3 -5,3 -3,0 -5,-1 -6,-3l-4 2c2,4 5,5 10,5 5,0 10,-2 10,-7 0,-6 -5,-7 -10,-7 -2,-1 -5,-1 -5,-3 0,-2 2,-3 5,-3 3,0 5,1 5,2l4 -1zm16 19l0 -23 -5 0 0 23 5 0zm31 -20c-2,-3 -5,-4 -8,-4 -9,0 -13,6 -13,13 0,6 4,11 13,11 4,0 6,-1 9,-4l0 -10 -10 0 0 4 6 0 0 4c-2,2 -4,2 -5,2 -6,0 -8,-4 -8,-7 0,-5 3,-9 8,-9 1,0 4,1 5,2l3 -2zm27 11l-12 -14 -3 0 0 23 4 0 0 -16 12 16 0 0 3 0 0 -23 -4 0 0 14zm33 4l-13 0 0 -5 12 0 0 -4 -12 0 0 -5 13 0 0 -4 -18 0c0,7 0,15 0,23l18 0 0 -5zm31 4l-7 -7c4,-1 5,-5 5,-8 0,-4 -2,-7 -8,-7 -3,0 -7,0 -11,0l0 23 5 0 0 -8 4 0 7 8 5 0 0 -1zm-10 -18c3,0 4,2 4,3 0,2 -1,4 -4,4l-6 0 0 -7 6 0z"/>
  </g>
 </g>
</svg>
