<?xml version="1.0" encoding="UTF-8"?>
<!DOCTYPE svg PUBLIC "-//W3C//DTD SVG 1.1//EN" "http://www.w3.org/Graphics/SVG/1.1/DTD/svg11.dtd">
<!-- Creator: CorelDRAW X8 -->
<svg xmlns="http://www.w3.org/2000/svg" xml:space="preserve" width="3.261mm" height="3.261mm" version="1.1" style="shape-rendering:geometricPrecision; text-rendering:geometricPrecision; image-rendering:optimizeQuality; fill-rule:evenodd; clip-rule:evenodd"
viewBox="0 0 11 11"
 xmlns:xlink="http://www.w3.org/1999/xlink">
 <defs>
  <style type="text/css">
   <![CDATA[
    .fil0 {fill:#FEFEFE}
   ]]>
  </style>
 </defs>
 <g id="Camada_x0020_1">
  <metadata id="CorelCorpID_0Corel-Layer"/>
  <path class="fil0" d="M5 11l0 0c-3,0 -5,-3 -5,-6l0 0c0,-3 2,-5 5,-5l0 0c3,0 6,2 6,5l0 0c0,3 -3,6 -6,6zm-2 -5l0 -1 1 0c0,0 0,0 0,1 0,0 1,0 1,0 0,0 -1,0 -1,0 0,0 0,0 0,0l-1 0zm0 -2l1 0c0,0 0,0 0,0 0,0 0,0 0,0 0,1 0,1 0,1 0,0 0,0 0,0l-1 0 0 -1zm1 3c1,0 1,0 1,0 0,0 0,0 0,0 0,-1 0,-1 0,-1 0,0 0,0 0,-1 0,0 0,0 0,0 0,0 0,0 0,0 0,0 0,0 0,-1 0,0 0,0 0,0 0,0 0,-1 -1,-1l-2 0 0 4 2 0c0,0 0,0 0,0zm2 -2c1,0 1,0 1,0 0,0 0,0 0,0 0,0 1,0 1,0l-2 0c0,0 0,0 0,0zm0 2c0,0 1,0 1,0 0,0 1,0 1,0 0,0 0,-1 0,-1l-1 0c0,0 0,0 0,0 0,1 0,1 0,1 0,0 0,0 0,-1 -1,0 -1,0 -1,0l2 0c0,0 0,-1 0,-1 0,0 0,0 0,0 0,0 0,-1 0,-1 -1,0 -1,0 -1,0 -1,0 -1,0 -1,1 0,0 0,0 0,1 0,0 0,1 0,1zm0 -3l2 0 0 0 -2 0 0 0z"/>
 </g>
</svg>
