<?xml version="1.0" encoding="UTF-8"?>
<!DOCTYPE svg PUBLIC "-//W3C//DTD SVG 1.1//EN" "http://www.w3.org/Graphics/SVG/1.1/DTD/svg11.dtd">
<!-- Creator: CorelDRAW X8 -->
<svg xmlns="http://www.w3.org/2000/svg" xml:space="preserve" width="3.2608mm" height="3.261mm" version="1.1" style="shape-rendering:geometricPrecision; text-rendering:geometricPrecision; image-rendering:optimizeQuality; fill-rule:evenodd; clip-rule:evenodd"
viewBox="0 0 12 12"
 xmlns:xlink="http://www.w3.org/1999/xlink">
 <defs>
  <style type="text/css">
   <![CDATA[
    .fil0 {fill:#FEFEFE}
   ]]>
  </style>
 </defs>
 <g id="Camada_x0020_1">
  <metadata id="CorelCorpID_0Corel-Layer"/>
  <path class="fil0" d="M6 12l0 0c-3,0 -6,-3 -6,-6l0 0c0,-3 3,-6 6,-6l0 0c3,0 6,3 6,6l0 0c0,3 -3,6 -6,6zm1 -6c0,0 0,-1 0,-1 0,0 1,-1 1,-1 1,0 1,1 1,2 -1,0 -2,0 -2,0zm1 2c-1,0 -1,-1 -1,-2 1,0 1,0 2,0 0,1 -1,2 -1,2zm-2 1c-1,0 -1,0 -2,-1 1,-1 1,-1 2,-2 1,1 1,2 1,3 0,0 -1,0 -1,0zm-3 -3c0,0 0,0 0,0 1,0 2,0 3,-1 0,1 0,1 0,1 -1,0 -2,1 -3,2 0,-1 0,-1 0,-2zm1 -3c1,1 1,1 2,2 -1,0 -2,0 -3,0 0,-1 1,-1 1,-2zm2 0c1,0 1,0 2,0 -1,1 -1,1 -2,2 0,-1 0,-2 -1,-2 0,0 1,0 1,0zm0 -1c-2,0 -4,2 -4,4 0,2 2,4 4,4 2,0 4,-2 4,-4 0,-2 -2,-4 -4,-4z"/>
 </g>
</svg>
