<?xml version="1.0" encoding="UTF-8"?>
<!DOCTYPE svg PUBLIC "-//W3C//DTD SVG 1.1//EN" "http://www.w3.org/Graphics/SVG/1.1/DTD/svg11.dtd">
<!-- Creator: CorelDRAW X8 -->
<svg xmlns="http://www.w3.org/2000/svg" xml:space="preserve" width="3.261mm" height="3.2608mm" version="1.1" style="shape-rendering:geometricPrecision; text-rendering:geometricPrecision; image-rendering:optimizeQuality; fill-rule:evenodd; clip-rule:evenodd"
viewBox="0 0 10 10"
 xmlns:xlink="http://www.w3.org/1999/xlink">
 <defs>
  <style type="text/css">
   <![CDATA[
    .fil0 {fill:#FEFEFE}
   ]]>
  </style>
 </defs>
 <g id="Camada_x0020_1">
  <metadata id="CorelCorpID_0Corel-Layer"/>
  <path class="fil0" d="M5 10l0 0c-3,0 -5,-3 -5,-5l0 0c0,-3 2,-5 5,-5l0 0c2,0 5,2 5,5l0 0c0,2 -3,5 -5,5zm0 -8c-1,0 -1,0 -1,0 -1,0 -1,0 -1,0 0,0 0,0 0,1 -1,0 -1,0 -1,0 0,0 0,0 0,1 0,0 0,0 0,1 0,1 0,1 0,1 0,0 0,0 0,1 0,0 0,0 1,0 0,0 0,0 0,0 0,0 0,0 1,0 0,0 0,0 1,0 1,0 1,0 1,0 0,0 0,0 1,0 0,0 0,0 0,0 0,0 0,0 0,0 0,-1 0,-1 0,-1 0,0 0,0 0,-1 0,-1 0,-1 0,-1 0,-1 0,-1 0,-1 0,0 0,0 0,0 0,-1 0,-1 0,-1 -1,0 -1,0 -1,0 0,0 0,0 -1,0zm0 1c0,0 1,0 1,0 0,0 0,0 0,0 0,0 1,0 1,0 0,0 0,0 0,0 0,0 0,0 0,1 0,0 0,0 0,1 0,0 0,1 0,1 0,0 0,0 0,0 0,0 0,1 0,1 0,0 -1,0 -1,0 0,0 0,0 0,0 0,0 -1,0 -1,0 -1,0 -1,0 -1,0 -1,0 -1,0 -1,0 0,0 0,0 0,0 0,0 0,-1 0,-1 0,0 0,0 0,0 0,0 0,-1 0,-1 0,-1 0,-1 0,-1 0,-1 0,-1 0,-1 0,0 0,0 0,0 0,0 0,0 0,0 0,0 0,0 1,0 0,0 0,0 1,0zm0 3c-1,0 -1,-1 -1,-1 0,-1 0,-1 1,-1 0,0 1,0 1,1 0,0 -1,1 -1,1zm0 -3c-1,0 -2,1 -2,2 0,1 1,1 2,1 1,0 1,0 1,-1 0,-1 0,-2 -1,-2zm2 0c0,1 -1,1 -1,1 0,0 0,0 0,-1 0,0 0,0 0,0 0,0 1,0 1,0z"/>
 </g>
</svg>
