<?xml version="1.0" encoding="UTF-8"?>
<!DOCTYPE svg PUBLIC "-//W3C//DTD SVG 1.1//EN" "http://www.w3.org/Graphics/SVG/1.1/DTD/svg11.dtd">
<!-- Creator: CorelDRAW X8 -->
<svg xmlns="http://www.w3.org/2000/svg" xml:space="preserve" width="3.261mm" height="3.261mm" version="1.1" style="shape-rendering:geometricPrecision; text-rendering:geometricPrecision; image-rendering:optimizeQuality; fill-rule:evenodd; clip-rule:evenodd"
viewBox="0 0 8 8"
 xmlns:xlink="http://www.w3.org/1999/xlink">
 <defs>
  <style type="text/css">
   <![CDATA[
    .fil0 {fill:#FEFEFE}
   ]]>
  </style>
 </defs>
 <g id="Camada_x0020_1">
  <metadata id="CorelCorpID_0Corel-Layer"/>
  <path class="fil0" d="M4 8l0 0c-2,0 -4,-2 -4,-4l0 0c0,-2 2,-4 4,-4l0 0c2,0 4,2 4,4l0 0c0,2 -2,4 -4,4zm-2 -3l1 0 0 -2 -1 0 0 2zm0 -2c1,0 1,-1 1,-1 0,0 0,0 -1,0 0,0 0,0 0,0 0,0 0,1 0,1zm2 1c0,0 0,0 1,0 0,0 0,0 0,0 0,0 0,1 0,1l1 0c0,0 0,0 0,-1 0,-1 -1,-1 -1,-1 -1,0 -1,0 -1,0l0 0 -1 0 0 2 1 0c0,0 0,-1 0,-1z"/>
 </g>
</svg>
