<?xml version="1.0" encoding="UTF-8"?>
<!DOCTYPE svg PUBLIC "-//W3C//DTD SVG 1.1//EN" "http://www.w3.org/Graphics/SVG/1.1/DTD/svg11.dtd">
<!-- Creator: CorelDRAW X8 -->
<svg xmlns="http://www.w3.org/2000/svg" xml:space="preserve" width="69.747mm" height="18.5992mm" version="1.1" style="shape-rendering:geometricPrecision; text-rendering:geometricPrecision; image-rendering:optimizeQuality; fill-rule:evenodd; clip-rule:evenodd"
viewBox="0 0 6975 1860"
 xmlns:xlink="http://www.w3.org/1999/xlink">
 <defs>
  <style type="text/css">
   <![CDATA[
    .fil0 {fill:url(#id0)}
   ]]>
  </style>
  <linearGradient id="id0" gradientUnits="userSpaceOnUse" x1="10572" y1="3315.43" x2="1355.2" y2="-1607.06">
   <stop offset="0" style="stop-opacity:1; stop-color:#E5097F"/>
   <stop offset="0.258824" style="stop-opacity:1; stop-color:#8F1D82"/>
   <stop offset="1" style="stop-opacity:1; stop-color:#393185"/>
  </linearGradient>
 </defs>
 <g id="Camada_x0020_1">
  <metadata id="CorelCorpID_0Corel-Layer"/>
  <path class="fil0" d="M2351 642c-77,0 -140,24 -182,75l0 -67 -160 0 0 801 168 0 0 -282c43,47 102,70 174,70 163,0 289,-117 289,-299 0,-182 -126,-298 -289,-298zm1192 833c-20,-19 -45,-29 -70,-29 -67,0 -100,49 -100,102 0,50 29,97 100,97 33,0 56,-13 75,-34l0 -80 -81 0 0 32 48 0 0 33c-15,12 -28,15 -42,15 -47,0 -65,-32 -65,-63 0,-39 24,-69 65,-69 16,0 35,6 48,19l22 -23zm261 163l-57 -65c36,-7 47,-33 47,-59 0,-33 -23,-62 -68,-63 -29,1 -59,0 -89,0l0 189 35 0 0 -63 35 0 54 63 43 0 0 -2zm-78 -154c23,0 33,16 33,31 0,15 -10,30 -33,30l-54 0 0 -61 54 0zm304 156l39 0 -84 -189 -39 0 -85 189 39 0 16 -35 98 0 16 35zm-30 -69l-70 0 35 -80 35 80zm180 -86l53 0c46,0 46,67 0,67l-53 0 0 -67zm53 -34c-29,0 -59,0 -88,0l0 189 35 0 0 -55 53 0c93,0 93,-134 0,-134zm320 189l0 -188 -36 0 0 79 -92 0 0 -79 -36 0 0 188 36 0 0 -76 92 0 0 76 36 0zm131 0l0 -189 -35 0 0 189 35 0zm238 -48c-13,12 -31,19 -48,19 -47,0 -65,-33 -65,-64 0,-31 20,-65 65,-65 17,0 33,5 46,17l23 -22c-19,-20 -43,-29 -69,-29 -68,0 -100,50 -100,99 0,49 30,98 100,98 27,0 52,-9 72,-28l-24 -25zm354 -141c-23,0 -51,0 -74,0l0 189c23,0 51,0 74,0 66,0 95,-48 95,-96 -1,-47 -30,-93 -95,-93zm-39 34l39 0c41,0 58,29 59,59 1,31 -16,62 -59,62l-39 0 0 -121zm360 120l-106 0 0 -42 102 0 0 -34 -102 0 0 -43 106 0 0 -35 -141 0c0,63 0,126 0,189l141 0 0 -35zm240 -122c-14,-30 -45,-38 -74,-38 -35,0 -73,16 -73,55 0,42 35,53 74,57 25,3 44,10 44,28 0,20 -22,28 -44,28 -23,0 -45,-9 -53,-30l-30 16c14,34 44,46 83,46 42,0 79,-18 79,-60 0,-45 -37,-55 -76,-60 -23,-3 -42,-7 -42,-24 0,-14 12,-25 39,-25 20,0 38,10 45,21l28 -14zm131 157l0 -189 -35 0 0 189 35 0zm258 -165c-20,-19 -45,-29 -70,-29 -67,0 -100,49 -100,102 0,50 29,97 100,97 33,0 56,-13 75,-34l0 -80 -81 0 0 32 48 0 0 33c-14,12 -27,15 -42,15 -47,0 -65,-32 -65,-63 0,-39 24,-69 65,-69 16,0 35,6 48,19l22 -23zm220 93l-92 -117 -29 0 0 189 36 0 0 -127 99 127 0 0 22 0 0 -189 -36 0 0 117zm271 37l-106 0 0 -42 103 0 0 -34 -103 0 0 -43 106 0 0 -35 -141 0c0,63 0,126 0,189l141 0 0 -35zm257 33l-57 -65c36,-7 48,-33 48,-59 0,-33 -24,-62 -68,-63 -30,1 -60,0 -90,0l0 189 36 0 0 -63 34 0 55 63 42 0 0 -2zm-77 -154c22,0 32,16 32,31 0,15 -9,30 -32,30l-54 0 0 -61 54 0zm-6897 -1066c118,-42 257,-91 422,-149 200,-70 449,-158 766,-269 0,67 0,134 0,200 -317,88 -566,156 -766,212 -165,45 -304,84 -422,116 0,-37 0,-73 0,-110zm0 152c129,-32 283,-70 469,-116 232,-57 528,-130 916,-226 0,36 0,72 0,108 -388,81 -684,143 -916,191 -186,39 -340,72 -469,98 0,-18 0,-36 0,-55zm0 98c118,-22 257,-47 422,-76 200,-37 449,-82 766,-139 0,67 0,134 0,201 -317,33 -566,59 -766,80 -165,17 -304,32 -422,44 0,-37 0,-74 0,-110zm0 415c118,12 257,27 422,44 200,21 449,47 766,80 0,67 0,133 0,200 -317,-57 -566,-102 -766,-138 -165,-30 -304,-55 -422,-76 0,-37 0,-73 0,-110zm0 152c129,27 283,59 469,98 232,49 528,111 916,192 0,36 0,71 0,107 -388,-96 -684,-169 -916,-226 -186,-46 -340,-84 -469,-116 0,-18 0,-36 0,-55zm0 98c118,32 257,70 422,116 200,55 449,124 766,211 0,67 0,134 0,200 -317,-111 -566,-199 -766,-269 -165,-58 -304,-107 -422,-148 0,-37 0,-74 0,-110zm0 -513c129,-10 283,-21 469,-35 232,-18 528,-40 916,-70 0,144 0,287 0,430 -388,-29 -684,-51 -916,-69 -186,-14 -340,-26 -469,-35 0,-74 0,-147 0,-221zm2322 281c-84,0 -147,-61 -147,-161 0,-100 63,-160 147,-160 84,0 148,60 148,160 0,100 -64,161 -148,161zm623 138c174,0 274,-77 274,-185 0,-228 -350,-132 -350,-231 0,-30 32,-54 107,-54 53,0 110,11 168,43l56 -120c-55,-32 -144,-50 -224,-50 -169,0 -268,77 -268,187 0,232 350,135 350,230 0,32 -29,53 -106,53 -71,0 -150,-23 -202,-56l-56 120c54,36 153,63 251,63zm736 -155c-18,14 -43,21 -68,21 -45,0 -72,-27 -72,-76l0 -236 145 0 0 -130 -145 0 0 -233 -168 0 0 233 -90 0 0 130 90 0 0 238c0,138 80,208 217,208 51,0 102,-12 136,-37l-45 -118zm480 -442c-75,0 -139,23 -185,69l0 -281 -168 0 0 800 168 0 0 -287c0,-106 59,-156 139,-156 75,0 118,43 118,137l0 306 168 0 0 -332c0,-177 -103,-256 -240,-256zm661 597c185,0 318,-124 318,-299 0,-174 -133,-298 -318,-298 -184,0 -319,124 -319,298 0,175 135,299 319,299zm0 -138c-84,0 -148,-61 -148,-161 0,-100 64,-160 148,-160 84,0 148,60 148,160 0,100 -64,161 -148,161zm1182 -459c-88,0 -163,35 -210,94 -40,-63 -109,-94 -190,-94 -75,0 -139,25 -182,75l0 -67 -161 0 0 580 168 0 0 -291c0,-103 53,-152 127,-152 70,0 110,43 110,137l0 306 168 0 0 -291c0,-103 53,-152 129,-152 68,0 110,43 110,137l0 306 168 0 0 -332c0,-177 -99,-256 -237,-256zm894 -221l-181 0 -145 155 131 0 195 -155zm77 521c0,-186 -132,-300 -302,-300 -177,0 -310,125 -310,298 0,173 131,299 331,299 105,0 186,-33 240,-94l-90 -97c-40,38 -84,56 -145,56 -89,0 -150,-44 -166,-116l438 0c2,-14 4,-33 4,-46zm-301 -173c75,0 130,47 142,121l-285 0c11,-75 66,-121 143,-121z"/>
 </g>
</svg>
