<?xml version="1.0" encoding="UTF-8"?>
<!DOCTYPE svg PUBLIC "-//W3C//DTD SVG 1.1//EN" "http://www.w3.org/Graphics/SVG/1.1/DTD/svg11.dtd">
<!-- Creator: CorelDRAW X8 -->
<svg xmlns="http://www.w3.org/2000/svg" xml:space="preserve" width="148.236mm" height="39.5297mm" version="1.1" style="shape-rendering:geometricPrecision; text-rendering:geometricPrecision; image-rendering:optimizeQuality; fill-rule:evenodd; clip-rule:evenodd"
viewBox="0 0 14824 3953"
 xmlns:xlink="http://www.w3.org/1999/xlink">
 <defs>
  <style type="text/css">
   <![CDATA[
    .fil0 {fill:url(#id0)}
   ]]>
  </style>
  <linearGradient id="id0" gradientUnits="userSpaceOnUse" x1="22469" y1="7046.45" x2="2880.25" y2="-3415.57">
   <stop offset="0" style="stop-opacity:1; stop-color:#E5097F"/>
   <stop offset="0.258824" style="stop-opacity:1; stop-color:#8F1D82"/>
   <stop offset="1" style="stop-opacity:1; stop-color:#393185"/>
  </linearGradient>
 </defs>
 <g id="Camada_x0020_1">
  <metadata id="CorelCorpID_0Corel-Layer"/>
  <path class="fil0" d="M4998 1364c-165,0 -298,52 -388,160l0 -142 -341 0 0 1702 357 0 0 -600c92,101 218,149 372,149 346,0 614,-248 614,-635 0,-387 -268,-634 -614,-634zm2532 1771c-42,-41 -96,-62 -149,-62 -142,0 -212,105 -212,218 0,105 61,204 212,204 70,0 120,-27 159,-72l0 -169 -171 0 0 68 102 0 0 71c-31,25 -59,32 -90,32 -100,0 -138,-68 -138,-134 0,-83 52,-148 138,-148 35,0 75,14 102,40l47 -48zm554 346l-121 -137c76,-16 101,-71 101,-126 0,-70 -49,-133 -144,-134 -64,1 -127,0 -191,0l0 402 76 0 0 -134 73 0 116 134 90 0 0 -5zm-164 -326c48,0 69,32 69,64 0,33 -21,65 -69,65l-115 0 0 -129 115 0zm646 331l82 0 -179 -402 -83 0 -180 402 82 0 34 -76 210 0 34 76zm-64 -146l-149 0 74 -171 75 171zm382 -183l114 0c96,0 96,142 0,142l-114 0 0 -142zm114 -73c-63,0 -126,0 -189,0l0 402 75 0 0 -118 114 0c196,0 196,-284 0,-284zm678 402l0 -400 -75 0 0 169 -197 0 0 -169 -76 0 0 400 76 0 0 -162 197 0 0 162 75 0zm279 0l0 -402 -75 0 0 402 75 0zm505 -103c-26,27 -66,41 -101,41 -99,0 -137,-69 -138,-136 -1,-67 41,-139 138,-139 35,0 71,12 97,38l50 -49c-41,-40 -92,-61 -147,-61 -145,0 -213,107 -212,211 0,105 63,207 212,207 58,0 111,-19 153,-59l-52 -53zm754 -299c-50,0 -109,0 -158,0l0 402c49,0 108,0 158,0 140,0 202,-103 200,-204 -1,-100 -63,-198 -200,-198zm-83 72l83 0c87,0 124,63 125,125 2,66 -34,132 -125,132l-83 0 0 -257zm764 256l-225 0 0 -91 217 0 0 -70 -217 0 0 -93 225 0 0 -74 -300 0c0,134 0,269 0,402l300 0 0 -74zm510 -261c-30,-62 -95,-80 -157,-80 -74,1 -155,35 -155,117 0,90 75,112 157,122 53,5 93,21 93,59 0,43 -45,60 -92,60 -49,0 -95,-20 -113,-64l-63 33c30,73 93,98 175,98 89,0 168,-38 168,-127 0,-96 -78,-118 -162,-128 -48,-6 -89,-16 -89,-51 0,-29 27,-53 83,-53 44,0 82,22 95,45l60 -31zm279 335l0 -402 -75 0 0 402 75 0zm548 -351c-41,-41 -95,-62 -149,-62 -141,0 -212,105 -212,218 0,105 61,204 212,204 71,0 120,-27 160,-72l0 -169 -172 0 0 68 103 0 0 71c-32,25 -59,32 -91,32 -100,0 -138,-68 -138,-134 0,-83 52,-148 138,-148 35,0 75,14 102,40l47 -48zm468 198l-196 -249 -61 0 0 402 75 0 0 -271 211 271 0 0 47 0 0 -402 -76 0 0 249zm577 79l-226 0 0 -91 218 0 0 -70 -218 0 0 -93 226 0 0 -74 -301 0c0,134 0,269 0,402l301 0 0 -74zm546 69l-122 -137c77,-16 102,-71 102,-126 0,-70 -50,-133 -145,-134 -63,1 -127,0 -190,0l0 402 75 0 0 -134 73 0 117 134 90 0 0 -5zm-165 -326c48,0 69,32 69,64 0,33 -20,65 -69,65l-115 0 0 -129 115 0zm-14658 -2267c250,-88 545,-192 897,-316 426,-149 955,-336 1627,-572 0,142 0,284 0,426 -672,185 -1201,331 -1627,449 -352,97 -647,178 -897,247 0,-78 0,-156 0,-234zm0 324c274,-68 601,-148 997,-246 493,-122 1121,-277 1947,-481 0,77 0,153 0,229 -826,172 -1454,304 -1947,407 -396,83 -723,151 -997,208 0,-39 0,-78 0,-117zm0 207c250,-45 545,-98 897,-162 426,-77 955,-172 1627,-293 0,142 0,284 0,425 -672,70 -1201,126 -1627,170 -352,37 -647,68 -897,94 0,-78 0,-156 0,-234zm0 882c250,27 545,57 897,94 426,45 955,100 1627,170 0,142 0,284 0,425 -672,-121 -1201,-216 -1627,-293 -352,-63 -647,-116 -897,-161 0,-78 0,-156 0,-235zm0 324c274,58 601,126 997,209 493,103 1121,234 1947,406 0,77 0,153 0,229 -826,-204 -1454,-359 -1947,-480 -396,-98 -723,-179 -997,-247 0,-38 0,-77 0,-117zm0 207c250,69 545,151 897,248 426,117 955,263 1627,448 0,142 0,284 0,425 -672,-236 -1201,-422 -1627,-572 -352,-123 -647,-227 -897,-315 0,-78 0,-156 0,-234zm0 -1089c274,-21 601,-45 997,-75 493,-38 1121,-85 1947,-148 0,305 0,609 0,914 -826,-62 -1454,-110 -1947,-147 -396,-30 -723,-55 -997,-75 0,-157 0,-313 0,-469zm4936 597c-179,0 -314,-129 -314,-342 0,-213 135,-341 314,-341 178,0 314,128 314,341 0,213 -136,342 -314,342zm1323 293c369,0 582,-163 582,-392 0,-486 -744,-282 -744,-492 0,-65 69,-115 229,-115 112,0 234,23 355,92l119 -255c-117,-68 -305,-107 -474,-107 -360,0 -571,165 -571,398 0,493 745,286 745,488 0,69 -62,113 -227,113 -151,0 -318,-49 -428,-120l-119 257c114,76 325,133 533,133zm1565 -330c-39,30 -92,46 -144,46 -97,0 -154,-57 -154,-163l0 -502 307 0 0 -275 -307 0 0 -494 -357 0 0 494 -191 0 0 275 191 0 0 507c0,293 169,442 460,442 110,0 218,-25 291,-78l-96 -252zm1019 -939c-158,0 -296,50 -392,146l0 -595 -357 0 0 1700 357 0 0 -610c0,-227 124,-332 296,-332 158,0 249,92 249,291l0 651 358 0 0 -706c0,-376 -220,-545 -511,-545zm1406 1269c392,0 676,-264 676,-635 0,-371 -284,-634 -676,-634 -392,0 -678,263 -678,634 0,371 286,635 678,635zm0 -293c-178,0 -316,-129 -316,-342 0,-213 138,-341 316,-341 179,0 314,128 314,341 0,213 -135,342 -314,342zm2511 -976c-186,0 -346,75 -445,201 -87,-135 -233,-201 -405,-201 -158,0 -296,55 -387,160l0 -142 -342 0 0 1233 358 0 0 -619c0,-220 112,-323 270,-323 149,0 234,92 234,291l0 651 357 0 0 -619c0,-220 112,-323 273,-323 144,0 233,92 233,291l0 651 358 0 0 -706c0,-376 -211,-545 -504,-545zm1901 -470l-385 0 -309 330 279 0 415 -330zm163 1109c0,-396 -280,-639 -642,-639 -376,0 -657,265 -657,634 0,367 277,635 703,635 222,0 394,-69 508,-199l-190 -207c-84,81 -178,120 -309,120 -188,0 -318,-94 -353,-248l933 0c2,-30 7,-69 7,-96zm-640 -369c161,0 278,101 303,257l-607 0c25,-158 142,-257 304,-257z"/>
 </g>
</svg>
