<?xml version="1.0" encoding="UTF-8"?>
<!DOCTYPE svg PUBLIC "-//W3C//DTD SVG 1.1//EN" "http://www.w3.org/Graphics/SVG/1.1/DTD/svg11.dtd">
<!-- Creator: CorelDRAW X8 -->
<svg xmlns="http://www.w3.org/2000/svg" xml:space="preserve" width="3.261mm" height="3.261mm" version="1.1" style="shape-rendering:geometricPrecision; text-rendering:geometricPrecision; image-rendering:optimizeQuality; fill-rule:evenodd; clip-rule:evenodd"
viewBox="0 0 6 6"
 xmlns:xlink="http://www.w3.org/1999/xlink">
 <defs>
  <style type="text/css">
   <![CDATA[
    .fil0 {fill:#FEFEFE}
   ]]>
  </style>
 </defs>
 <g id="Camada_x0020_1">
  <metadata id="CorelCorpID_0Corel-Layer"/>
  <path class="fil0" d="M3 6l0 0c-2,0 -3,-1 -3,-3l0 0c0,-2 1,-3 3,-3l0 0c2,0 3,1 3,3l0 0c0,2 -1,3 -3,3zm1 -4c0,0 -1,0 -1,1 0,0 0,-1 0,-1 1,0 1,1 1,1 0,0 0,0 -1,0 0,1 0,1 0,1 0,0 0,-1 0,-1 0,0 0,0 0,-1 0,0 0,0 -1,0 0,0 0,0 0,0 0,0 -1,0 -1,1l0 0c1,0 1,0 1,0 0,0 0,0 0,0 0,0 0,1 0,1 0,1 1,1 1,1 0,0 1,-1 1,-1 0,-1 1,-1 1,-2 0,0 0,0 -1,0z"/>
 </g>
</svg>
