<?xml version="1.0" encoding="UTF-8"?>
<!DOCTYPE svg PUBLIC "-//W3C//DTD SVG 1.1//EN" "http://www.w3.org/Graphics/SVG/1.1/DTD/svg11.dtd">
<!-- Creator: CorelDRAW X8 -->
<svg xmlns="http://www.w3.org/2000/svg" xml:space="preserve" width="3.261mm" height="3.2608mm" version="1.1" style="shape-rendering:geometricPrecision; text-rendering:geometricPrecision; image-rendering:optimizeQuality; fill-rule:evenodd; clip-rule:evenodd"
viewBox="0 0 9 9"
 xmlns:xlink="http://www.w3.org/1999/xlink">
 <defs>
  <style type="text/css">
   <![CDATA[
    .fil0 {fill:#FEFEFE}
   ]]>
  </style>
 </defs>
 <g id="Camada_x0020_1">
  <metadata id="CorelCorpID_0Corel-Layer"/>
  <path class="fil0" d="M6 5c0,0 -1,0 -1,0 0,0 0,0 0,0 0,0 0,0 0,0 0,0 0,0 0,0 0,0 -1,0 -1,0 0,0 0,-1 0,-1 0,0 0,0 0,0 0,0 0,0 0,0 0,0 0,0 0,0 0,0 0,0 0,0 0,0 0,0 0,0 0,0 0,-1 0,-1 0,0 0,0 0,0 0,0 0,0 0,0 0,0 -1,0 -1,0 0,0 0,1 0,1 0,0 0,0 0,0 0,0 0,0 0,0 1,1 1,1 2,1 0,1 0,1 0,1 0,0 1,-1 1,-1 0,0 0,0 0,0 0,0 0,0 0,0zm1 -1c0,-1 -1,-2 -3,-2 -1,0 -2,1 -2,2 0,0 0,0 0,0 0,1 0,1 0,2l0 1 1 0c1,0 1,0 1,0 2,0 3,-1 3,-3 0,0 0,0 0,0zm-3 3c0,0 0,-1 -1,-1l-1 0 1 0c-1,-1 -1,-1 -1,-2 0,0 0,0 0,0 0,-1 1,-2 2,-2 2,0 3,1 3,2 0,0 0,0 0,0 0,2 -1,3 -3,3zm0 2l0 0c-2,0 -4,-2 -4,-5l0 0c0,-2 2,-4 4,-4l0 0c3,0 5,2 5,4l0 0c0,3 -2,5 -5,5z"/>
 </g>
</svg>
